# Blender v2.77 (sub 0) OBJ File: 'skate boxes 3  decimate.blend'
# www.blender.org
mtllib Pyramid_Half.mtl
g Pyramid_Half
v 0.000000 0.000000 -3.000000
v 2.000000 0.000000 -3.000000
v 1.000000 0.500000 -2.000000
v 2.000000 0.500000 -2.000000
v 0.000000 0.000000 0.000000
v 2.000000 0.000000 0.000000
v 2.000000 0.500000 -1.000000
v 1.000000 0.500000 -1.000000
vt 0.2490 0.5230
vt 0.3756 0.5230
vt 0.3756 0.7480
vt 0.2490 0.6355
vt 0.2553 0.3828
vt 0.1428 0.3828
vt 0.0303 0.3265
vt 0.3713 0.3265
vt 0.1365 0.5230
vt 0.1365 0.6355
vt 0.3615 0.7621
vt 0.0240 0.7621
vt 0.0100 0.7480
vt 0.0100 0.5230
vn 0.0000 0.8944 -0.4472
vn 1.0000 0.0000 0.0000
vn 0.0000 1.0000 0.0000
vn -0.4472 0.8944 0.0000
vn -0.0000 0.8944 0.4472
usemtl None
s off
f 4/1/1 2/2/1 1/3/1 3/4/1
f 4/5/2 7/6/2 6/7/2 2/8/2
f 7/9/3 4/1/3 3/4/3 8/10/3
f 3/4/4 1/11/4 5/12/4 8/10/4
f 8/10/5 5/13/5 6/14/5 7/9/5
