# Blender v2.77 (sub 0) OBJ File: 'skate boxes 3  decimate.blend'
# www.blender.org
mtllib Pyramid_Full.mtl
g Pyramid_Full
v 0.000000 0.000000 -3.000000
v 1.000000 0.500000 -2.000000
v 0.000000 0.000000 0.000000
v 2.000000 0.500000 -1.000000
v 1.000000 0.500000 -1.000000
v 3.000000 0.000000 0.000000
v 3.000000 0.000000 -3.000000
v 2.000000 0.500000 -2.000000
vt 0.2490 0.5230
vt 0.3756 0.4105
vt 0.3756 0.7480
vt 0.2490 0.6355
vt 0.1365 0.5230
vt 0.1365 0.6355
vt 0.3615 0.7621
vt 0.0240 0.7621
vt 0.0100 0.7480
vt 0.0100 0.4105
vt 0.0240 0.3965
vt 0.3615 0.3965
vn 0.0000 0.8944 -0.4472
vn 0.0000 1.0000 0.0000
vn -0.4472 0.8944 0.0000
vn 0.0000 0.8944 0.4472
vn 0.4472 0.8944 0.0000
usemtl None
s off
f 8/1/1 7/2/1 1/3/1 2/4/1
f 4/5/2 8/1/2 2/4/2 5/6/2
f 2/4/3 1/7/3 3/8/3 5/6/3
f 5/6/4 3/9/4 6/10/4 4/5/4
f 4/5/5 6/11/5 7/12/5 8/1/5
