# Blender v2.77 (sub 0) OBJ File: 'skate ramps ACTUAL colliders.blend'
# www.blender.org
mtllib Quaterpipe_Corner_Inner_Collider.mtl
g Quaterpipe_Corner_Inner_Collider
v 3.000000 2.000000 -0.000000
v 3.000000 0.000000 -0.000000
v 0.000000 2.000000 -0.000000
v 0.000000 0.000000 -0.000000
v 1.062949 1.644730 -3.000000
v 1.175337 1.261408 -2.999999
v 1.357847 0.908136 -3.000000
v 1.603465 0.598490 -3.000000
v 2.244201 0.155543 -3.000000
v 3.000001 1.644730 -1.062948
v 3.000000 1.261408 -1.175337
v 3.000000 0.908136 -1.357847
v 3.000001 0.598490 -1.603464
v 3.000002 0.344371 -1.902749
v 3.000001 0.155543 -2.244201
v 3.000001 0.039263 -2.614697
v 2.258723 1.644730 -1.210398
v 2.301733 1.261408 -1.314231
v 2.371575 0.908136 -1.482849
v 2.465570 0.598490 -1.709769
v 2.580101 0.344371 -1.986272
v 1.630299 1.644730 -1.630298
v 1.709770 1.261408 -1.709769
v 1.838822 0.908136 -1.838823
v 2.012501 0.598490 -2.012500
v 2.224127 0.344371 -2.224126
v 2.465570 0.155543 -2.465569
v 3.000001 -0.000000 -3.000000
v 1.210399 1.644730 -2.258722
v 1.314233 1.261408 -2.301732
v 1.482849 0.908136 -2.371576
v 1.709770 0.598490 -2.465569
v 1.986273 0.344371 -2.580101
v 1.902750 0.344371 -3.000000
v 2.614698 0.039263 -3.000000
v 0.000000 2.000000 -3.000001
v 0.000000 0.000000 -3.000001
v 3.000000 2.000000 -1.025001
v 1.603464 2.000000 -1.603464
v 1.025000 1.999999 -3.000000
v 1.175338 2.000000 -2.244873
v 2.244874 2.000000 -1.175337
vt 0.0600 0.2933
vt 0.0530 0.3282
vt 0.0218 0.3232
vt 0.0290 0.2862
vt 0.0963 0.3022
vt 0.0892 0.3342
vt 0.1319 0.3123
vt 0.1245 0.3408
vt 0.1670 0.3242
vt 0.1596 0.3485
vt 0.2017 0.3382
vt 0.1948 0.3575
vt 0.2304 0.3683
vt 0.1907 0.3771
vt 0.1553 0.3729
vt 0.2271 0.3823
vt 0.2668 0.3810
vt 0.2648 0.3885
vt 0.0487 0.3631
vt 0.0173 0.3606
vt 0.0850 0.3661
vt 0.1202 0.3693
vt 0.0837 0.3980
vt 0.0854 0.4299
vt 0.0491 0.4334
vt 0.0474 0.3982
vt 0.1190 0.3977
vt 0.1208 0.4261
vt 0.1540 0.3973
vt 0.1558 0.4218
vt 0.1895 0.3969
vt 0.1911 0.4167
vt 0.2260 0.3965
vt 0.2273 0.4108
vt 0.2641 0.3962
vt 0.2649 0.4039
vt 0.0175 0.4362
vt 0.0158 0.3984
vt 0.2368 0.4381
vt 0.2028 0.4554
vt 0.1955 0.4363
vt 0.0538 0.4685
vt 0.0614 0.5038
vt 0.0299 0.5113
vt 0.0223 0.4739
vt 0.0902 0.4619
vt 0.0980 0.4941
vt 0.1256 0.4546
vt 0.1337 0.4831
vt 0.1606 0.4461
vt 0.1685 0.4703
vt 0.0965 0.1899
vt 0.0051 0.1923
vt 0.0051 0.0048
vt 0.0051 0.1923
vt 0.0964 0.1899
vt 0.0051 0.0048
vt 0.7106 0.9921
vt 0.8171 0.8695
vt 0.9920 0.9922
vt 0.0109 0.8006
vt 0.2923 0.8006
vt 0.2923 0.9882
vt 0.0109 0.9882
vt 0.7479 0.8971
vt 0.7839 0.8866
vt 0.8465 0.8464
vt 0.8695 0.8171
vt 0.5736 0.8006
vt 0.5736 0.9882
vt 0.8866 0.7839
vt 0.9921 0.7108
vt 0.8972 0.7480
vt 0.1048 0.1590
vt 0.1153 0.1230
vt 0.1324 0.0899
vt 0.1555 0.0609
vt 0.1835 0.0371
vt 0.2155 0.0194
vt 0.2503 0.0085
vt 0.2864 0.0048
vt 0.1012 0.1899
vt 0.1048 0.1590
vt 0.1012 0.1899
vt 0.2503 0.0084
vt 0.2155 0.0193
vt 0.1835 0.0371
vt 0.1555 0.0609
vt 0.1324 0.0899
vt 0.1153 0.1230
vn 0.1916 0.1888 -0.9631
vn 0.3756 0.1923 -0.9066
vn 0.3803 0.1059 -0.9188
vn 0.1941 0.1040 -0.9754
vn 0.1819 0.3617 -0.9144
vn 0.3558 0.3678 -0.8591
vn 0.1654 0.5299 -0.8317
vn 0.3227 0.5373 -0.7791
vn 0.1427 0.6821 -0.7172
vn 0.2773 0.6891 -0.6694
vn 0.1140 0.8117 -0.5729
vn 0.2163 0.8239 -0.5238
vn 0.1553 0.9235 -0.3507
vn 0.3932 0.8311 -0.3932
vn 0.5123 0.6891 -0.5123
vn 0.2580 0.9310 -0.2580
vn 0.1550 0.9676 -0.1991
vn 0.1771 0.9681 -0.1771
vn 0.6939 0.1922 -0.6939
vn 0.7031 0.1057 -0.7031
vn 0.6575 0.3678 -0.6575
vn 0.5963 0.5373 -0.5963
vn 0.8591 0.3678 -0.3558
vn 0.9066 0.1923 -0.3756
vn 0.7791 0.5373 -0.3227
vn 0.6694 0.6891 -0.2773
vn 0.5238 0.8239 -0.2163
vn 0.3507 0.9235 -0.1553
vn 0.1991 0.9676 -0.1550
vn 0.9188 0.1059 -0.3803
vn 0.5729 0.8117 -0.1140
vn 0.9631 0.1888 -0.1916
vn 0.9754 0.1040 -0.1941
vn 0.9144 0.3617 -0.1819
vn 0.8317 0.5299 -0.1654
vn 0.7172 0.6821 -0.1427
vn 1.0000 -0.0000 0.0000
vn 0.0000 0.0000 -1.0000
vn -0.0000 1.0000 0.0000
vn 0.0000 0.0000 1.0000
vn -1.0000 0.0000 0.0000
usemtl None
s 1
f 10/1/1 17/2/2 42/3/3 38/4/4
f 11/5/5 18/6/6 17/2/2 10/1/1
f 12/7/7 19/8/8 18/6/6 11/5/5
f 13/9/9 20/10/10 19/8/8 12/7/7
f 14/11/11 21/12/12 20/10/10 13/9/9
f 15/13/13 21/12/12 14/11/11
f 21/12/12 26/14/14 25/15/15 20/10/10
f 15/13/13 27/16/16 26/14/14 21/12/12
f 16/17/17 28/18/18 27/16/16 15/13/13
f 17/2/2 22/19/19 39/20/20 42/3/3
f 18/6/6 23/21/21 22/19/19 17/2/2
f 19/8/8 24/22/22 23/21/21 18/6/6
f 20/10/10 25/15/15 24/22/22 19/8/8
f 23/23/21 30/24/23 29/25/24 22/26/19
f 24/27/22 31/28/25 30/24/23 23/23/21
f 25/29/15 32/30/26 31/28/25 24/27/22
f 26/31/14 33/32/27 32/30/26 25/29/15
f 27/33/16 9/34/28 33/32/27 26/31/14
f 28/35/18 35/36/29 9/34/28 27/33/16
f 22/26/19 29/25/24 41/37/30 39/38/20
f 9/39/28 34/40/31 33/41/27
f 29/42/24 5/43/32 40/44/33 41/45/30
f 30/46/23 6/47/34 5/43/32 29/42/24
f 31/48/25 7/49/35 6/47/34 30/46/23
f 32/50/26 8/51/36 7/49/35 31/48/25
f 33/41/27 34/40/31 8/51/36 32/50/26
f 38/52/37 1/53/37 2/54/37
f 36/55/38 40/56/38 37/57/38
f 1/58/39 39/59/39 3/60/39
f 1/61/40 3/62/40 4/63/40 2/64/40
f 1/58/39 38/65/39 42/66/39
f 1/58/39 42/66/39 39/59/39
f 3/60/39 39/67/39 41/68/39
f 4/63/41 3/62/41 36/69/41 37/70/41
f 3/60/39 41/71/39 36/72/39
f 36/72/39 41/71/39 40/73/39
f 5/74/38 6/75/38 7/76/38 8/77/38 34/78/38 9/79/38 35/80/38 28/81/38 37/57/38 40/82/38
f 10/83/37 38/84/37 2/54/37 28/81/37 16/85/37 15/86/37 14/87/37 13/88/37 12/89/37 11/90/37
