# Blender v2.77 (sub 0) OBJ File: 'skate boxes 3  LOW POLYblend.blend'
# www.blender.org
mtllib Rail_Angled_Collider.mtl
g Rail_Angled_Collider
v -0.020000 0.874063 -1.701792
v -0.020000 0.922459 -1.688739
v -0.020000 0.951604 -2.013053
v -0.020000 1.000000 -2.000000
v 0.020000 0.874063 -1.701792
v 0.020000 0.922459 -1.688739
v 0.020000 0.951604 -2.013053
v 0.020000 1.000000 -2.000000
v -0.020000 0.863702 -1.660200
v -0.020000 0.912097 -1.647147
v 0.020000 0.863702 -1.660200
v 0.020000 0.912097 -1.647147
v -0.020000 0.706666 -1.029838
v -0.020000 0.755062 -1.016785
v 0.020000 0.706666 -1.029838
v 0.020000 0.755062 -1.016785
v -0.020000 0.696190 -0.987786
v -0.020000 0.744586 -0.974734
v 0.020000 0.696190 -0.987786
v 0.020000 0.744586 -0.974734
v -0.020000 0.539252 -0.357815
v -0.020000 0.587648 -0.344762
v 0.020000 0.539252 -0.357815
v 0.020000 0.587648 -0.344762
v -0.020000 0.528769 -0.315733
v -0.020000 0.577164 -0.302680
v 0.020000 0.528769 -0.315733
v 0.020000 0.577164 -0.302680
v -0.020000 0.450065 0.000193
v -0.020000 0.498461 0.013246
v 0.020000 0.450065 0.000193
v 0.020000 0.498461 0.013246
v -0.020000 0.000000 -1.690000
v 0.020000 0.000000 -1.690000
v -0.020000 0.000000 -1.650000
v 0.020000 0.000000 -1.650000
v -0.020000 0.000000 -1.020000
v 0.020000 0.000000 -1.020000
v -0.020000 0.000000 -0.980000
v 0.020000 0.000000 -0.980000
v -0.020000 0.000000 -0.350000
v 0.020000 0.000000 -0.350000
v -0.020000 0.000000 -0.310000
v 0.020000 0.000000 -0.310000
vt 0.0000 0.0000
vt 0.0000 0.0000
vt 0.0000 0.0000
vt 0.0000 0.0000
vt 0.0000 0.0000
vt 0.0000 0.0000
vt 0.0000 0.0000
vt 0.0000 0.0000
vt 0.0000 0.0000
vt 0.0000 0.0000
vt 0.0000 0.0000
vt 0.0000 0.0000
vt 0.0000 0.0000
vt 0.0000 0.0000
vt 0.0000 0.0000
vt 0.0000 0.0000
vt 0.0000 0.0000
vt 0.0000 0.0000
vt 0.0000 0.0000
vt 0.0000 0.0000
vt 0.0000 0.0000
vt 0.0000 0.0000
vt 0.0000 0.0000
vt 0.0000 0.0000
vt 0.0000 0.0000
vt 0.0000 0.0000
vt 0.0000 0.0000
vt 0.0000 0.0000
vt 0.0000 0.0000
vt 0.0000 0.0000
vt 0.0000 0.0000
vt 0.0000 0.0000
vt 0.0000 0.0000
vt 0.0000 0.0000
vt 0.0000 0.0000
vt 0.0000 0.0000
vt 0.0000 0.0000
vt 0.0000 0.0000
vt 0.0000 0.0000
vt 0.0000 0.0000
vt 0.0000 0.0000
vt 0.0000 0.0000
vt 0.0000 0.0000
vt 0.0000 0.0000
vn -1.0000 0.0000 0.0000
vn 0.0000 0.2604 -0.9655
vn 1.0000 0.0000 0.0000
vn 0.0000 0.9703 0.2417
vn 0.0000 -0.9703 -0.2417
vn 0.0000 -0.2604 0.9655
vn 0.0000 -1.0000 0.0000
vn 0.0000 -0.0139 -0.9999
vn 0.0000 0.0108 0.9999
vn 0.0000 0.0112 0.9999
vn 0.0000 -0.0135 -0.9999
vn 0.0000 0.0118 0.9999
vn 0.0000 -0.0145 -0.9999
usemtl None
s off
f 2/1/1 4/2/1 3/3/1 1/4/1
f 4/2/2 8/5/2 7/6/2 3/3/2
f 8/5/3 6/7/3 5/8/3 7/6/3
f 6/7/4 2/1/4 10/9/4 12/10/4
f 1/4/5 3/3/5 7/6/5 5/8/5
f 6/7/4 8/5/4 4/2/4 2/1/4
f 12/10/4 10/9/4 14/11/4 16/12/4
f 5/8/3 6/7/3 12/10/3 11/13/3
f 2/1/1 1/4/1 9/14/1 10/9/1
f 17/15/1 13/16/1 37/17/1 39/18/1
f 25/19/1 21/20/1 41/21/1 43/22/1
f 10/9/1 9/14/1 13/16/1 14/11/1
f 9/14/5 11/13/5 15/23/5 13/16/5
f 11/13/3 12/10/3 16/12/3 15/23/3
f 20/24/4 18/25/4 22/26/4 24/27/4
f 15/23/3 16/12/3 20/24/3 19/28/3
f 16/12/4 14/11/4 18/25/4 20/24/4
f 14/11/1 13/16/1 17/15/1 18/25/1
f 24/27/4 22/26/4 26/29/4 28/30/4
f 18/25/1 17/15/1 21/20/1 22/26/1
f 17/15/5 19/28/5 23/31/5 21/20/5
f 19/28/3 20/24/3 24/27/3 23/31/3
f 25/19/5 27/32/5 31/33/5 29/34/5
f 22/26/1 21/20/1 25/19/1 26/29/1
f 9/14/1 1/4/1 33/35/1 35/36/1
f 23/31/3 24/27/3 28/30/3 27/32/3
f 32/37/6 30/38/6 29/34/6 31/33/6
f 27/32/3 28/30/3 32/37/3 31/33/3
f 28/30/4 26/29/4 30/38/4 32/37/4
f 26/29/1 25/19/1 29/34/1 30/38/1
f 33/35/7 34/39/7 36/40/7 35/36/7
f 37/17/7 38/41/7 40/42/7 39/18/7
f 41/21/7 42/43/7 44/44/7 43/22/7
f 13/16/8 15/23/8 38/41/8 37/17/8
f 27/32/9 25/19/9 43/22/9 44/44/9
f 23/31/3 27/32/3 44/44/3 42/43/3
f 19/28/10 17/15/10 39/18/10 40/42/10
f 1/4/11 5/8/11 34/39/11 33/35/11
f 5/8/3 11/13/3 36/40/3 34/39/3
f 15/23/3 19/28/3 40/42/3 38/41/3
f 11/13/12 9/14/12 35/36/12 36/40/12
f 21/20/13 23/31/13 42/43/13 41/21/13
