# Blender v2.77 (sub 0) OBJ File: 'skate boxes 3  decimate.blend'
# www.blender.org
mtllib Steps_Mini.mtl
g Steps_Mini
v 0.000000 0.000000 0.000000
v 0.000000 1.000000 0.000000
v 0.000000 0.000000 -2.000000
v 2.000000 0.000000 0.000000
v 2.000000 1.000000 0.000000
v 2.000000 0.000000 -2.000000
v 0.000000 0.250000 -2.000000
v 2.000000 0.250000 -2.000000
v 0.000000 1.000000 -0.500000
v 2.000000 1.000000 -0.500000
v 2.000000 0.750000 -0.500000
v 2.000000 0.750000 -1.000000
v 2.000000 0.500000 -1.000000
v 2.000000 0.500000 -1.500000
v 2.000000 0.250000 -1.500000
v 0.000000 0.750000 -1.000000
v 0.000000 0.750000 -0.500000
v 0.000000 0.500000 -1.500000
v 0.000000 0.500000 -1.000000
v 0.000000 0.250000 -1.500000
vt 0.5988 0.0359
vt 0.5426 0.0359
vt 0.5426 0.0078
vt 0.7676 0.0078
vt 0.4612 0.7706
vt 0.4612 0.9934
vt 0.4334 0.9934
vt 0.4334 0.7706
vt 0.7675 0.9934
vt 0.7675 0.7706
vt 0.8789 0.7706
vt 0.8789 0.9934
vt 0.7113 0.1203
vt 0.7676 0.1203
vt 0.7676 0.0078
vt 0.7113 0.0922
vt 0.6551 0.0641
vt 0.5988 0.0641
vt 0.7113 0.0922
vt 0.6551 0.0922
vt 0.7676 0.1203
vt 0.7113 0.1203
vt 0.5988 0.0641
vt 0.6551 0.0641
vt 0.5988 0.0359
vt 0.6840 0.7706
vt 0.7118 0.7706
vt 0.7118 0.9934
vt 0.6840 0.9934
vt 0.6551 0.0922
vt 0.6283 0.9934
vt 0.6283 0.7706
vt 0.6004 0.7706
vt 0.6004 0.9934
vt 0.5448 0.9934
vt 0.5448 0.7706
vt 0.5169 0.7706
vt 0.5169 0.9934
vt 0.5426 0.0359
vt 0.5426 0.0078
vn -1.0000 0.0000 0.0000
vn 0.0000 0.0000 -1.0000
vn 0.0000 0.0000 1.0000
vn 1.0000 0.0000 0.0000
vn 0.0000 1.0000 0.0000
usemtl None
s off
f 20/1/1 7/2/1 3/3/1 1/4/1
f 7/5/2 8/6/2 6/7/2 3/8/2
f 5/9/3 2/10/3 1/11/3 4/12/3
f 10/13/4 5/14/4 4/15/4 11/16/4
f 19/17/1 18/18/1 20/1/1 1/4/1
f 17/19/1 16/20/1 19/17/1 1/4/1
f 2/21/1 9/22/1 17/19/1 1/4/1
f 14/23/4 13/24/4 4/15/4 15/25/4
f 17/26/2 9/27/2 10/28/2 11/29/2
f 12/30/4 11/16/4 4/15/4 13/24/4
f 11/29/5 12/31/5 16/32/5 17/26/5
f 19/33/2 16/32/2 12/31/2 13/34/2
f 13/34/5 14/35/5 18/36/5 19/33/5
f 5/9/5 10/28/5 9/27/5 2/10/5
f 20/37/2 18/36/2 14/35/2 15/38/2
f 15/38/5 8/6/5 7/5/5 20/37/5
f 8/39/4 15/25/4 4/15/4 6/40/4
